<svg width="25" height="26" viewBox="0 0 25 26" fill="none" xmlns="http://www.w3.org/2000/svg">
<path d="M22.2126 8.52358L16.5459 2.74858L18.4126 0.823584C18.9237 0.296501 19.5517 0.032959 20.2966 0.032959C21.0415 0.032959 21.669 0.296501 22.1793 0.823584L24.0459 2.74858C24.557 3.27567 24.8237 3.91183 24.8459 4.65708C24.8681 5.40233 24.6237 6.03804 24.1126 6.56421L22.2126 8.52358ZM1.81259 25.1267C1.43481 25.1267 1.11792 24.9947 0.861919 24.7307C0.605919 24.4667 0.478364 24.1404 0.479253 23.7517V19.8673C0.479253 19.684 0.512586 19.5062 0.579253 19.3338C0.645919 19.1615 0.745919 19.007 0.879253 18.8705L14.6126 4.70796L20.2793 10.5517L6.54592 24.7142C6.41259 24.8517 6.26281 24.9548 6.09659 25.0236C5.93036 25.0923 5.75792 25.1267 5.57925 25.1267H1.81259Z" fill="#1D84B5"/>
</svg>
