<svg width="32" height="32" viewBox="0 0 32 32" fill="none" xmlns="http://www.w3.org/2000/svg">
<path d="M28.5931 31.1048L18.7931 21.3048C17.9181 22.0048 16.9118 22.559 15.7743 22.9673C14.6368 23.3757 13.4264 23.5798 12.1431 23.5798C8.9639 23.5798 6.27357 22.4785 4.07207 20.2758C1.87057 18.0732 0.769233 15.3828 0.768066 12.2048C0.768066 9.02567 1.8694 6.33533 4.07207 4.13383C6.27473 1.93233 8.96507 0.831001 12.1431 0.829834C15.3222 0.829834 18.0126 1.93117 20.2141 4.13383C22.4156 6.3365 23.5169 9.02683 23.5181 12.2048C23.5181 13.4882 23.3139 14.6986 22.9056 15.8361C22.4972 16.9736 21.9431 17.9798 21.2431 18.8548L31.0868 28.6986C31.4077 29.0194 31.5681 29.4132 31.5681 29.8798C31.5681 30.3465 31.3931 30.7548 31.0431 31.1048C30.7222 31.4257 30.3139 31.5861 29.8181 31.5861C29.3222 31.5861 28.9139 31.4257 28.5931 31.1048ZM12.1431 20.0798C14.3306 20.0798 16.1902 19.3139 17.7221 17.7821C19.2539 16.2503 20.0192 14.3912 20.0181 12.2048C20.0181 10.0173 19.2521 8.15767 17.7203 6.62583C16.1885 5.094 14.3294 4.32867 12.1431 4.32983C9.95557 4.32983 8.0959 5.09575 6.56407 6.62758C5.03223 8.15942 4.2669 10.0185 4.26807 12.2048C4.26807 14.3923 5.03398 16.252 6.56582 17.7838C8.09765 19.3157 9.95673 20.081 12.1431 20.0798Z" fill="#1F1F1F"/>
</svg>
