<svg width="23" height="27" viewBox="0 0 23 27" fill="none" xmlns="http://www.w3.org/2000/svg">
<path d="M4.41529 26.0017C3.63612 26.0017 2.96887 25.724 2.41354 25.1687C1.8582 24.6134 1.58101 23.9466 1.58195 23.1684V4.75171C1.18057 4.75171 0.843872 4.61571 0.571872 4.34371C0.299872 4.07171 0.164344 3.73549 0.165288 3.33505C0.165288 2.93366 0.301288 2.59696 0.573288 2.32496C0.845288 2.05296 1.18151 1.91744 1.58195 1.91838H7.24862C7.24862 1.51699 7.38462 1.1803 7.65662 0.908297C7.92862 0.636297 8.26484 0.500769 8.66529 0.501714H14.332C14.7333 0.501714 15.07 0.637714 15.342 0.909714C15.614 1.18171 15.7496 1.51794 15.7486 1.91838H21.4153C21.8167 1.91838 22.1534 2.05438 22.4254 2.32638C22.6974 2.59838 22.8329 2.9346 22.832 3.33505C22.832 3.73644 22.696 4.07313 22.424 4.34513C22.152 4.61713 21.8157 4.75266 21.4153 4.75171V23.1684C21.4153 23.9475 21.1376 24.6148 20.5823 25.1701C20.027 25.7255 19.3602 26.0027 18.582 26.0017H4.41529ZM7.24862 18.9184C7.24862 19.3198 7.38462 19.6565 7.65662 19.9285C7.92862 20.2005 8.26484 20.336 8.66529 20.335C9.06668 20.335 9.40337 20.199 9.67537 19.927C9.94737 19.655 10.0829 19.3188 10.082 18.9184V9.00171C10.082 8.60032 9.94595 8.26363 9.67395 7.99163C9.40195 7.71963 9.06573 7.5841 8.66529 7.58505C8.2639 7.58505 7.9272 7.72105 7.6552 7.99305C7.3832 8.26505 7.24768 8.60127 7.24862 9.00171V18.9184ZM12.9153 18.9184C12.9153 19.3198 13.0513 19.6565 13.3233 19.9285C13.5953 20.2005 13.9315 20.336 14.332 20.335C14.7333 20.335 15.07 20.199 15.342 19.927C15.614 19.655 15.7496 19.3188 15.7486 18.9184V9.00171C15.7486 8.60032 15.6126 8.26363 15.3406 7.99163C15.0686 7.71963 14.7324 7.5841 14.332 7.58505C13.9306 7.58505 13.5939 7.72105 13.3219 7.99305C13.0499 8.26505 12.9143 8.60127 12.9153 9.00171V18.9184Z" fill="#FF3333"/>
</svg>
